# xmcd
#
# Track frame offsets: 
#        150
#        14110
#        27043
#        40973
#        58851
#        72227
#        87131
#        96655
#        109350
#        123290
#        136061
#        147833
#        164095
#        180898
#        193836
#        207768
#        221312
#        242239
#        269956
#
# Disc length: 3988 seconds
#
# Revision: 2
# Processed by: cddbd v1.5.2PL0 Copyright (c) Steve Scherf et al.
# Submitted via: ExactAudioCopyFreeDBPlugin 1.0
#
DISCID=240f9213
DTITLE=Various Artist - Lady Sings The Blues Vol2
DYEAR=2003
DGENRE=Blues
TTITLE0=Aretha Franklin - All Night Long
TTITLE1=Peggy Lee - As Time Goes By
TTITLE2=Nina Simone - I Wish I Knew (How It Would Feel To Be Free)
TTITLE3=Sarah Vaughan - Lover Man (Oh Where Can You Be)
TTITLE4=Nancy Wilson - The Nearness Of You
TTITLE5=Billie Holiday - Georgia On My Mind
TTITLE6=Dinah Washington - Baby Won't You Please Come Home
TTITLE7=Dusty Springfield - You Don't Have To Say You Love Me
TTITLE8=P P Arnold - The First Cut Is The Deepest
TTITLE9=Julie London - In The Wee Small Hours Of The Morning
TTITLE10=Ella Fitzgerald and The Delta Rhythm Boys - (It's Only A) Paper
TTITLE10=Moon
TTITLE11=Nina Simone - My Baby Just Cares For Me
TTITLE12=Gladys Knight and The Pips - You're The Best Thing That Ever Ha
TTITLE12=ppend To Me
TTITLE13=Bobby Gentry - I'll Never Fall In Love Again
TTITLE14=Billie Holiday - The Way You Look Tonight
TTITLE15=Keely Smith - Someone To Watch Over Me
TTITLE16=Eva Cassidy and Chuck Brown - Need Your Love So Bad
TTITLE17=Joss Stone - The Chokin' Kind
TTITLE18=Data
EXTD=
EXTT0=
EXTT1=
EXTT2=
EXTT3=
EXTT4=
EXTT5=
EXTT6=
EXTT7=
EXTT8=
EXTT9=
EXTT10=
EXTT11=
EXTT12=
EXTT13=
EXTT14=
EXTT15=
EXTT16=
EXTT17=
EXTT18=
PLAYORDER=
